<svg xmlns="http://www.w3.org/2000/svg" width="50" height="50" viewBox="0 0 50 50" style="
    fill: #9a9da7 !important;
">
    <path style="text-indent:0;text-align:start;line-height:normal;text-transform:none;block-progression:tb;-inkscape-font-specification:Bitstream Vera Sans" d="M 0.8125 0 A 1.0001 1.0001 0 0 0 0 1 L 0 17 A 1.0001 1.0001 0 0 0 1 18 L 8 18 L 8 32 L 1 32 A 1.0001 1.0001 0 0 0 0.90625 32 A 1.0001 1.0001 0 0 0 0.8125 32 A 1.0001 1.0001 0 0 0 0 33 L 0 43.8125 A 1.016466 1.016466 0 0 0 0 43.90625 A 1.016466 1.016466 0 0 0 0 44.125 A 1.016466 1.016466 0 0 0 0 44.21875 L 0 48.8125 A 1.016466 1.016466 0 0 0 0.25 49.65625 A 1.0001 1.0001 0 0 0 0.3125 49.71875 A 1.016466 1.016466 0 0 0 0.3125 49.75 A 1.0001 1.0001 0 0 0 0.375 49.78125 A 1.016466 1.016466 0 0 0 0.46875 49.875 A 1.0001 1.0001 0 0 0 0.53125 49.90625 A 1.016466 1.016466 0 0 0 0.5625 49.90625 A 1.0001 1.0001 0 0 0 0.625 49.9375 A 1.016466 1.016466 0 0 0 0.65625 49.9375 A 1.0001 1.0001 0 0 0 0.71875 49.96875 A 1.016466 1.016466 0 0 0 0.75 49.96875 A 1.0001 1.0001 0 0 0 1 50 A 1.016466 1.016466 0 0 0 1.03125 50 L 17 50 A 1.0001 1.0001 0 0 0 18 49 L 18 42 L 32 42 L 32 49 A 1.0001 1.0001 0 0 0 33 50 L 49 50 A 1.0001 1.0001 0 0 0 50 49 L 50 33 A 1.0001 1.0001 0 0 0 49 32 L 42 32 L 42 18 L 49 18 A 1.0001 1.0001 0 0 0 50 17 L 50 1 A 1.0001 1.0001 0 0 0 49 0 L 33 0 A 1.0001 1.0001 0 0 0 32.90625 0 A 1.0001 1.0001 0 0 0 32 1 L 32 8 L 18 8 L 18 1 A 1.0001 1.0001 0 0 0 17 0 L 1 0 A 1.0001 1.0001 0 0 0 0.90625 0 A 1.0001 1.0001 0 0 0 0.8125 0 z M 2 2 L 16 2 L 16 13.90625 L 16 16 L 2 16 L 2 2 z M 34 2 L 48 2 L 48 16 L 34 16 L 34 13.40625 L 34 2 z M 18 10 L 32 10 L 32 13.40625 L 32 17 A 1.0001 1.0001 0 0 0 33 18 L 40 18 L 40 32 L 37.1875 32 L 33 32 A 1.0001 1.0001 0 0 0 32.90625 32 A 1.0001 1.0001 0 0 0 32.8125 32 A 1.0001 1.0001 0 0 0 32 33 L 32 40 L 18 40 L 18 36.90625 L 18 33.3125 A 1.0001 1.0001 0 0 0 17.46875 32.09375 A 1.0001 1.0001 0 0 0 17.40625 32.0625 A 1.0001 1.0001 0 0 0 17.375 32.0625 A 1.0001 1.0001 0 0 0 17.3125 32.03125 A 1.0001 1.0001 0 0 0 17.28125 32.03125 A 1.0001 1.0001 0 0 0 17.21875 32 A 1.0001 1.0001 0 0 0 17.15625 32 A 1.0001 1.0001 0 0 0 17.125 32 A 1.0001 1.0001 0 0 0 17.0625 32 A 1.0001 1.0001 0 0 0 17.03125 32 A 1.0001 1.0001 0 0 0 17 32 L 10 32 L 10 18 L 17 18 A 1.0001 1.0001 0 0 0 18 17 L 18 13.90625 L 18 10 z M 2 34 L 4.59375 34 L 2 36.59375 L 2 34 z M 7.40625 34 L 9.59375 34 L 2 41.5625 L 2 39.40625 L 7.40625 34 z M 12.40625 34 L 14.5625 34 L 2 46.5625 L 2 44.4375 L 12.3125 34.09375 A 1.0001 1.0001 0 0 0 12.40625 34 z M 34 34 L 37.1875 34 L 48 34 L 48 48 L 34 48 L 34 34 z M 16 35.4375 L 16 36.90625 L 16 37.625 A 1.0001 1.0001 0 0 0 15.78125 37.78125 L 5.6875 47.90625 A 1.0001 1.0001 0 0 0 5.5625 48 L 3.4375 48 L 16 35.4375 z M 16 40.4375 L 16 42.59375 L 10.6875 47.90625 A 1.0001 1.0001 0 0 0 10.5625 48 L 8.40625 48 L 16 40.4375 z M 16 45.40625 L 16 48 L 13.40625 48 L 16 45.40625 z"></path>
</svg>
